<svg xmlns="http://www.w3.org/2000/svg" xmlns:xlink="http://www.w3.org/1999/xlink" width="847.16" height="196.352" version="1.2"><defs><marker id="c" refX="0" refY="0" orient="auto" overflow="visible"><path d="M10 0l4-4L0 0l14 4z" fill-rule="evenodd" stroke="#000" stroke-width="1.066"/></marker><linearGradient id="a"><stop offset="0" stop-color="#00878f"/><stop offset="1" stop-color="#00878f" stop-opacity="0"/></linearGradient><linearGradient xlink:href="#a" id="b" x1="1457.471" y1="1091.333" x2="1201.022" y2="669.745" gradientUnits="userSpaceOnUse" gradientTransform="translate(-939.87 -966.444)"/></defs><path d="M213.837 22.232L548.276 6.776l94.865 2.456 9.187 138.213-311.7-5.383-127.16 10.75 4.378-51.125z" fill="url(#b)" fill-rule="evenodd"/><path d="M5.641 24.332c-1.891-2.108 6.428.028 11.252-1.05 25.482 2.503 51.012-.14 76.497-2.105 90.245-.837 180.683 2.351 270.694-6.135 69.117-3.85 138.176-9.542 207.444-9.92 67.212-.386 134.356 4.52 201.545 5.92 21.53 1.354 43.33.997 64.718 2.57-7.836 9.972-1.697 1.396-2.848 1.42-83.286-1.988-166.576-6.449-249.888-8.131-94.506.439-188.689 8.883-282.976 14.245-72.63 4.13-145.422.109-218.064 2.634-22.994 2.698-46.075 3.136-69.074 1.412-4.244 1.039-11.949-.449-9.3-1.44z" font-weight="400" font-family="MS Shell Dlg 2" vector-effect="non-scaling-stroke" stroke="#000" stroke-width=".2" stroke-linecap="round" stroke-linejoin="bevel"/><path d="M8.471 25.032c-.405-3.79 2.088-9.563 2.642-2.63-.475 23.098-1.097 46.15 2.068 69.091-.579 21.426 3.904 46.37 1.866 65.84-4.537-1.118 24.752-.054 14.631-.897 56.543-4.518 113.243 3.8 169.794-1.64 71.074-6.875 142.42-12.566 213.888-9.754 60.21-.283 120.349 3.662 180.57 1.8 69.877.557 140.257 3.64 209.834 2.19 10.823-4.044-2.555 5.52-7.123 2.21-90.21 1.05-180.454-3.809-270.707-2-69.22-2.037-138.512-3.694-207.752-1.797-73.451 3.655-146.674 15.6-220.38 10.056-27.178-1.747-57.567.297-82.936 1.591-4.17-2.753.326-13.373-1.222-18.98-2.364-26.402-2.065-52.99-4.915-79.29-.03-13.624 1.198-28.377.836-41.33.827-.117-1.129 4.798-1.094 5.54zm827.87-16.23c1.4 1.018.886 11.388 1.701 15.58.848 31.29 2.139 62.601 2.898 93.89-1.277 9.072-.698 23.9.601 30.17.826 4.316.837-1.402-1.234 1.82-10.324-9.846 3.173 1.835 1.034-1.42-.114 2.584.305 2.659-1.859-1.52-3.047-19.24 1.241-38.866-1.528-58.26-.74-26.839-1.152-53.87-1.96-80.57-.2.6 1.25.844.347.31z" font-weight="400" font-family="MS Shell Dlg 2" vector-effect="non-scaling-stroke" stroke="#000" stroke-width=".2" stroke-linecap="round" stroke-linejoin="bevel"/><path d="M643.141 9.232c3.502 11.74 4.292 28.876 4.96 42.92 1.966 30.227-1.455 61.385 6.146 90.84-.98-5.891.574 5.31-2.444-1.84-8.863-40.455-2.092-82.576-8.21-123.46-.412-3.483.017-5.967-.432-8.46m-429.32 13c.634 20.935.77 44.153 4.075 65.74.141 15.76.634 35.145-3.269 48.36-1.007-.52-2.696 2.418.366.54-4.189 1.796.233-10.27.053-14.05 3.995-31.204-4.239-62.268-2.139-93.58.288-1.66-.182-8.002.91-7.01" font-weight="400" font-family="MS Shell Dlg 2" vector-effect="non-scaling-stroke" stroke="#000" stroke-width=".2" stroke-linecap="round" stroke-linejoin="bevel"/><text style="line-height:125%;-inkscape-font-specification:'Open Sans'" x="49.081" y="94.852" font-weight="400" font-size="16" font-family="Open Sans" letter-spacing="0" word-spacing="0" fill="#e47128"><tspan x="49.081" y="94.852" font-size="32">Globals</tspan></text><text style="line-height:125%;-inkscape-font-specification:'Open Sans'" x="342.119" y="100.542" font-weight="400" font-size="32.441" font-family="Open Sans" letter-spacing="0" word-spacing="0" fill="#fff"><tspan x="342.119" y="100.542" font-size="64.882">Heap</tspan></text><text style="line-height:125%;-inkscape-font-specification:'Open Sans'" x="711.877" y="92.772" font-weight="400" font-size="16" font-family="Open Sans" letter-spacing="0" word-spacing="0" fill="#e47128"><tspan x="711.877" y="92.772" font-size="32">Stack</tspan></text><text style="line-height:125%;-inkscape-font-specification:'Open Sans'" x="392.015" y="191.352" font-weight="400" font-size="16" font-family="Open Sans" letter-spacing="0" word-spacing="0"><tspan x="392.015" y="191.352" font-size="32">RAM</tspan></text><path d="M27.045 179.816l350.444 1.05" id="d" fill="none" fill-rule="evenodd" stroke="#000" stroke-width="1" stroke-linecap="butt" stroke-linejoin="miter" stroke-opacity="1" marker-start="url(#c)"/><use xlink:href="#d" transform="matrix(-1 0 0 1 862.452 1.049)" width="100%" height="100%"/></svg>